<svg viewBox="0 0 239 240" fill="none" xmlns="http://www.w3.org/2000/svg">
<path fill-rule="evenodd" clip-rule="evenodd" d="M185.141 25.5976C166.132 11.4037 142.548 3 117 3C54.0395 3 3 54.0395 3 117C3 142.548 11.4037 166.132 25.5976 185.141L27.7419 182.997C14.0796 164.549 6 141.718 6 117C6 55.6964 55.6964 6 117 6C141.718 6 164.549 14.0796 182.997 27.7419L185.141 25.5976ZM208.465 48.9428L206.32 51.0873C219.945 69.5198 228 92.3192 228 117C228 178.304 178.304 228 117 228C92.3192 228 69.5198 219.945 51.0873 206.32L48.9428 208.465C67.9368 222.621 91.4899 231 117 231C179.96 231 231 179.96 231 117C231 91.4899 222.621 67.9368 208.465 48.9428Z" fill="#A9A9A9"/>
<line x1="223.546" y1="12.1213" x2="12.1212" y2="223.546" stroke="#A9A9A9" stroke-width="3" stroke-linecap="round"/>
<line x1="87.8999" y1="80" x2="87.8999" y2="101" stroke="#515151" stroke-width="2" stroke-linecap="round"/>
<line x1="94.8" y1="80" x2="94.8" y2="101" stroke="#515151" stroke-width="2" stroke-linecap="round"/>
<line x1="102" y1="86.9" x2="81" y2="86.9" stroke="#515151" stroke-width="2" stroke-linecap="round"/>
<line x1="102" y1="93.8" x2="81" y2="93.8" stroke="#515151" stroke-width="2" stroke-linecap="round"/>
<line x1="141.9" y1="129" x2="141.9" y2="150" stroke="#515151" stroke-width="2" stroke-linecap="round"/>
<line x1="148.8" y1="129" x2="148.8" y2="150" stroke="#515151" stroke-width="2" stroke-linecap="round"/>
<line x1="156" y1="135.9" x2="135" y2="135.9" stroke="#515151" stroke-width="2" stroke-linecap="round"/>
<line x1="156" y1="142.8" x2="135" y2="142.8" stroke="#515151" stroke-width="2" stroke-linecap="round"/>
<path d="M39.1901 151.599C39.2544 151.742 39.2598 151.901 39.2064 152.077C39.1372 152.261 39.0237 152.388 38.8657 152.46C38.8184 152.481 38.7402 152.497 38.6311 152.509L35.2932 152.763L36.8684 156.245L40.7077 155.964C40.9961 155.929 41.2046 156.053 41.3332 156.337C41.3975 156.479 41.4029 156.639 41.3495 156.815C41.2803 156.998 41.1668 157.126 41.0088 157.197C40.9615 157.219 40.8833 157.235 40.7742 157.246L37.4363 157.501L38.1543 159.088C38.2257 159.246 38.2347 159.413 38.1813 159.589C38.105 159.757 37.9879 159.877 37.8299 159.948C37.6562 160.027 37.4891 160.036 37.3285 159.975C37.1608 159.899 37.0413 159.782 36.9698 159.624L36.059 157.61L31.9163 157.914L32.6771 159.596C32.7485 159.754 32.7575 159.921 32.7041 160.098C32.6278 160.266 32.5107 160.385 32.3527 160.457C32.179 160.535 32.0119 160.544 31.8513 160.484C31.6836 160.407 31.564 160.29 31.4926 160.132L30.5389 158.024L27.4227 158.263C27.1343 158.299 26.9258 158.174 26.7972 157.89C26.7329 157.748 26.7275 157.589 26.7809 157.412C26.8343 157.236 26.9479 157.109 27.1216 157.03C27.169 157.008 27.2472 156.992 27.3562 156.981L29.9817 156.792L28.3958 153.286L25.2796 153.526C24.9912 153.561 24.7827 153.436 24.6541 153.152C24.5827 152.994 24.5851 152.831 24.6615 152.664C24.7149 152.487 24.8205 152.364 24.9785 152.292C25.0258 152.271 25.1041 152.254 25.2131 152.243L27.8386 152.054L27.1635 150.562C27.085 150.388 27.0759 150.221 27.1365 150.06C27.197 149.9 27.3142 149.78 27.4879 149.702C27.6458 149.63 27.8129 149.621 27.9893 149.675C28.1499 149.735 28.2694 149.852 28.348 150.026L29.216 151.945L33.348 151.617L32.6407 150.053C32.5622 149.879 32.5532 149.712 32.6137 149.552C32.6742 149.391 32.7914 149.272 32.9651 149.193C33.123 149.122 33.2902 149.113 33.4665 149.166C33.6271 149.227 33.7466 149.344 33.8252 149.517L34.7253 151.507L38.5646 151.226C38.853 151.191 39.0615 151.315 39.1901 151.599ZM31.3591 156.683L35.4911 156.355L33.9159 152.872L29.7732 153.177L31.3591 156.683Z" fill="#636363"/>
<path d="M23.3551 134.839C23.6949 134.862 23.8962 135.034 23.9591 135.358C23.9922 135.528 23.9624 135.692 23.8698 135.852C23.7568 135.997 23.6153 136.087 23.4451 136.12C23.4111 136.126 23.3312 136.124 23.2055 136.113C23.0628 136.106 22.9302 136.105 22.8078 136.111L18.5967 135.977C18.2568 135.955 18.0555 135.782 17.9926 135.459C17.9595 135.288 17.9995 135.131 18.1124 134.985C18.205 134.826 18.3279 134.731 18.4811 134.701C18.5151 134.695 18.5848 134.69 18.6902 134.687C18.7786 134.688 18.8941 134.692 19.0369 134.699L23.3551 134.839Z" fill="#636363"/>
<path d="M23.1743 110.464C23.1153 110.635 23.0424 110.935 22.9555 111.366C22.8693 111.778 22.816 112.236 22.7956 112.738C22.7611 113.587 22.8816 114.251 23.157 114.731C23.4324 115.21 23.7866 115.459 24.2196 115.476C24.6006 115.492 24.9201 115.314 25.178 114.943C25.4194 114.554 25.6016 113.911 25.7248 113.013L25.871 111.979C25.9935 111.099 26.2208 110.414 26.553 109.925C26.8851 109.435 27.2719 109.095 27.7133 108.905C28.1375 108.714 28.5833 108.628 29.0509 108.647C29.5185 108.666 29.9812 108.806 30.439 109.068C30.8794 109.328 31.2432 109.768 31.5303 110.387C31.8008 110.988 31.9135 111.842 31.8685 112.951C31.8424 113.592 31.755 114.247 31.6064 114.918C31.4403 115.588 31.2151 116.22 30.9307 116.816C30.7989 117.071 30.5858 117.192 30.2914 117.18C30.1355 117.174 29.9998 117.099 29.8842 116.956C29.7512 116.811 29.6883 116.653 29.6953 116.48C29.6968 116.445 29.7165 116.385 29.7547 116.3C29.7929 116.215 29.8598 116.061 29.9556 115.84C30.0902 115.515 30.2203 115.087 30.3461 114.554C30.4718 114.022 30.5463 113.47 30.5695 112.898C30.6075 111.963 30.4805 111.246 30.1885 110.749C29.8799 110.233 29.4831 109.966 28.9981 109.946C28.5478 109.928 28.1598 110.085 27.834 110.419C27.4908 110.752 27.2681 111.324 27.1657 112.135L27.0195 113.17C26.8741 114.188 26.6519 114.959 26.353 115.485C26.0367 116.01 25.6842 116.36 25.2955 116.535C24.9067 116.71 24.5218 116.79 24.1408 116.774C23.7078 116.757 23.2881 116.627 22.8816 116.385C22.4585 116.125 22.1113 115.703 21.8401 115.119C21.5696 114.519 21.4551 113.707 21.4967 112.685C21.5206 112.097 21.5861 111.553 21.6931 111.054C21.7835 110.537 21.8974 110.082 22.0348 109.689C22.0578 109.551 22.1403 109.442 22.2824 109.361C22.4071 109.279 22.5388 109.241 22.6773 109.247C22.8678 109.254 23.0209 109.33 23.1365 109.473C23.2528 109.6 23.3074 109.749 23.3004 109.922C23.2962 110.026 23.2541 110.207 23.1743 110.464Z" fill="#636363"/>
<path d="M40.3709 78.8904C40.2869 79.042 40.1582 79.1491 39.9848 79.2115C39.8047 79.2504 39.6389 79.2279 39.4873 79.1439L28.4577 73.0315C28.2909 72.9391 28.1839 72.8104 28.1366 72.6455C28.0977 72.4654 28.1202 72.2995 28.2042 72.1479L30.4223 68.1454C30.9769 67.1448 31.7513 66.3553 32.7457 65.7767C33.7485 65.1831 34.8517 64.873 36.0554 64.8465C37.2676 64.8048 38.4725 65.1158 39.6702 65.7796C40.8073 66.4097 41.7038 67.2236 42.3597 68.2213C43.0089 69.1954 43.367 70.2657 43.4338 71.4324C43.5091 72.5838 43.2275 73.7357 42.589 74.8879L40.3709 78.8904ZM29.6564 72.2095L39.5489 77.6917L41.4519 74.2578C41.9728 73.3178 42.2025 72.3849 42.1409 71.459C42.0726 70.5095 41.7678 69.647 41.2265 68.8715C40.6785 68.0723 39.9497 67.4207 39.04 66.9166C38.0849 66.3873 37.1183 66.1291 36.1401 66.1419C35.162 66.1547 34.2674 66.3922 33.4564 66.8543C32.6455 67.3165 32.0131 67.9569 31.5594 68.7756L29.6564 72.2095Z" fill="#636363"/>
<path d="M52.2303 61.0388C52.1136 61.167 51.9637 61.2414 51.7806 61.2623C51.5964 61.2586 51.4402 61.1984 51.312 61.0817L41.9894 52.5905C41.8612 52.4738 41.7873 52.3361 41.7676 52.1775C41.7468 51.9944 41.7889 51.8452 41.894 51.7299L46.7961 46.3478C46.9245 46.2068 47.0744 46.1323 47.2458 46.1243C47.4172 46.1163 47.5734 46.1765 47.7144 46.3049C47.8425 46.4216 47.917 46.5715 47.9378 46.7546C47.9458 46.926 47.8856 47.0822 47.7572 47.2231L43.3453 52.0671L46.6899 55.1134L50.349 51.096C50.4774 50.955 50.6273 50.8806 50.7987 50.8726C50.9701 50.8646 51.1263 50.9248 51.2673 51.0531C51.3954 51.1699 51.4699 51.3198 51.4907 51.5028C51.4987 51.6742 51.4385 51.8304 51.3101 51.9714L47.651 55.9888L51.7069 59.6829L56.1538 54.8005C56.2822 54.6595 56.4321 54.5851 56.6035 54.5771C56.7749 54.5691 56.9311 54.6293 57.072 54.7576C57.2002 54.8744 57.2747 55.0243 57.2955 55.2073C57.3035 55.3787 57.2433 55.5349 57.1149 55.6759L52.2303 61.0388Z" fill="#636363"/>
<path d="M69.0248 46.3949C68.8101 46.5416 68.5383 46.5278 68.2094 46.3536C67.8128 46.1418 67.2491 45.8237 66.5183 45.3992C65.7777 44.9605 64.9525 44.4747 64.0426 43.9417C63.1373 43.3846 62.2199 42.8253 61.2904 42.2637C60.3753 41.6924 59.5279 41.1587 58.7483 40.6627C57.9731 40.1427 57.3553 39.7146 56.8948 39.3784C56.73 39.2601 56.5772 39.144 56.4365 39.0302C56.2958 38.9165 56.2059 38.8309 56.1668 38.7737C56.0788 38.6449 56.0386 38.4939 56.0462 38.3207C56.0539 38.1476 56.1507 37.9974 56.3368 37.8703C56.4513 37.7921 56.5831 37.7545 56.7322 37.7577C56.8715 37.7465 56.9945 37.7883 57.1014 37.8833C57.5574 38.2435 58.1391 38.6648 58.8465 39.1472C59.5441 39.6152 60.2997 40.1067 61.1132 40.6215C61.9267 41.1363 62.7523 41.6534 63.5899 42.1728C64.4177 42.6778 65.2019 43.1497 65.9425 43.5885C66.6733 44.0129 67.3096 44.3759 67.8515 44.6774C67.7368 43.895 67.5941 42.964 67.4232 41.8842C67.2425 40.7901 67.0374 39.6602 66.8079 38.4945C66.5926 37.319 66.3634 36.1846 66.1203 35.0912C65.8914 33.988 65.6595 33.0339 65.4244 32.2289C65.344 31.9269 65.4398 31.683 65.7118 31.4973C65.8549 31.3995 66.0157 31.3736 66.1941 31.4197C66.3627 31.4514 66.5008 31.546 66.6083 31.7035C66.6377 31.7464 66.6749 31.8469 66.7199 32.0051C66.7793 32.1534 66.8518 32.3978 66.9374 32.7382C67.0837 33.3519 67.2462 34.1121 67.4247 35.0187C67.6176 35.9156 67.8089 36.887 67.9986 37.9329C68.2027 38.9691 68.3898 39.9958 68.56 41.0131C68.7301 42.0304 68.88 42.9566 69.0097 43.7917C69.1393 44.6268 69.2383 45.2939 69.3064 45.7931C69.3476 46.0379 69.2538 46.2385 69.0248 46.3949Z" fill="#636363"/>
<path d="M101.955 32.5764C101.783 32.5995 101.62 32.5602 101.467 32.4585C101.328 32.3372 101.247 32.1907 101.224 32.0189L99.5402 19.5218C99.5148 19.3329 99.5541 19.1702 99.6581 19.0337C99.7793 18.895 99.9258 18.814 100.098 18.7909L103.679 18.3084C104.435 18.2066 105.086 18.2326 105.631 18.3865C106.177 18.5404 106.633 18.7499 107.001 19.0152C107.333 19.2679 107.614 19.606 107.846 20.0294C108.076 20.4358 108.219 20.845 108.274 21.2573C108.337 21.7211 108.311 22.1793 108.197 22.6319C108.081 23.0674 107.896 23.4507 107.644 23.7821C107.599 23.8406 107.547 23.9088 107.487 23.9868C107.443 24.0453 107.381 24.1061 107.302 24.1692C107.919 24.331 108.441 24.5754 108.87 24.9024C109.728 25.5564 110.227 26.4073 110.368 27.4552C110.431 27.919 110.407 28.3944 110.298 28.8814C110.186 29.3511 109.975 29.7907 109.662 30.2C109.335 30.6289 108.88 31.0138 108.296 31.3547C107.71 31.6785 106.928 31.9064 105.949 32.0383L101.955 32.5764ZM104.692 24.0748C105.134 23.9802 105.517 23.8325 105.839 23.6316C106.177 23.4113 106.427 23.1939 106.591 22.9795C106.937 22.5655 107.069 22.0493 106.986 21.4309C106.909 20.864 106.647 20.4096 106.199 20.0678C105.943 19.8573 105.617 19.7089 105.221 19.6224C104.841 19.5335 104.385 19.525 103.853 19.5967L100.915 19.9925L101.523 24.5017L104.692 24.0748ZM101.696 25.7901L102.425 31.2012L105.775 30.7499C106.531 30.6481 107.129 30.4801 107.57 30.2458C108.028 30.0092 108.374 29.7264 108.61 29.3974C109.011 28.8711 109.168 28.2815 109.08 27.6288C108.99 26.9588 108.652 26.4009 108.067 25.955C107.307 25.3753 106.326 25.1664 105.123 25.3284L101.696 25.7901Z" fill="#636363"/>
<path d="M122.638 31.4653C122.466 31.4482 122.316 31.3724 122.19 31.238C122.083 31.088 122.038 30.9268 122.055 30.7543L123.299 18.2058C123.318 18.0161 123.394 17.8668 123.527 17.758C123.677 17.651 123.838 17.606 124.01 17.6231C124.2 17.6419 124.349 17.7177 124.458 17.8504C124.567 17.9831 124.612 18.1443 124.593 18.334L123.413 30.2357L129.778 30.8666C129.968 30.8854 130.117 30.9612 130.226 31.0939C130.335 31.2266 130.38 31.3878 130.361 31.5776C130.344 31.7501 130.268 31.8993 130.133 32.0253C130.001 32.1341 129.84 32.1791 129.65 32.1603L122.638 31.4653Z" fill="#636363"/>
<path d="M149.397 22.6109C150.561 23.0115 151.52 23.6622 152.273 24.563C153.042 25.4695 153.528 26.5349 153.73 27.7593C153.954 28.9729 153.834 30.2517 153.372 31.5956C152.932 32.874 152.28 33.942 151.416 34.7997C150.575 35.6466 149.574 36.2096 148.415 36.4888C147.278 36.7573 146.045 36.663 144.718 36.2061C143.472 35.7773 142.467 35.1015 141.704 34.1786C140.945 33.2393 140.462 32.1657 140.255 30.9578C140.064 29.7554 140.183 28.5315 140.612 27.2859C141.085 25.9092 141.771 24.7976 142.667 23.9512C143.563 23.1049 144.585 22.5585 145.733 22.312C146.898 22.0713 148.119 22.1709 149.397 22.6109ZM148.974 23.8401C147.942 23.4847 146.948 23.4175 145.992 23.6384C145.058 23.8485 144.223 24.3035 143.487 25.0035C142.773 25.6927 142.224 26.5945 141.841 27.709C141.497 28.7088 141.394 29.6999 141.532 30.6825C141.687 31.6706 142.073 32.546 142.691 33.3085C143.308 34.0709 144.125 34.6271 145.141 34.9768C146.223 35.3492 147.225 35.4193 148.148 35.1871C149.088 34.9606 149.898 34.4971 150.579 33.7966C151.266 33.0797 151.787 32.205 152.142 31.1725C152.515 30.0908 152.615 29.053 152.444 28.0592C152.289 27.071 151.909 26.2067 151.302 25.4662C150.701 24.7094 149.925 24.1674 148.974 23.8401Z" fill="#636363"/>
<path d="M168.453 46.8984C167.698 46.8923 166.907 46.7813 166.08 46.5653C165.267 46.3586 164.406 45.968 163.498 45.3933C162.239 44.5961 161.329 43.6512 160.769 42.5585C160.233 41.4604 160.018 40.309 160.124 39.1043C160.23 37.8996 160.636 36.7407 161.34 35.6275C162.119 34.3972 163.056 33.4829 164.153 32.8845C165.264 32.2955 166.436 32.032 167.668 32.094C168.901 32.1561 170.096 32.5532 171.253 33.2855C171.897 33.6934 172.456 34.1393 172.929 34.6234C173.426 35.102 173.868 35.5868 174.255 36.0777C174.434 36.3139 174.444 36.5565 174.287 36.8055C174.194 36.952 174.059 37.0513 173.883 37.1036C173.73 37.1505 173.566 37.1184 173.39 37.0072C173.346 36.9794 173.289 36.923 173.22 36.8381C172.897 36.4082 172.519 35.9844 172.086 35.5667C171.653 35.149 171.144 34.7548 170.558 34.384C169.606 33.7815 168.622 33.4563 167.606 33.4083C166.605 33.3696 165.651 33.5967 164.744 34.0895C163.847 34.5677 163.078 35.3121 162.439 36.3227C161.864 37.2308 161.531 38.1788 161.439 39.1668C161.356 40.1402 161.534 41.0736 161.974 41.9672C162.428 42.8701 163.168 43.6459 164.193 44.2948C164.911 44.749 165.587 45.0743 166.222 45.2708C166.88 45.4619 167.515 45.5766 168.127 45.615L170.143 42.4293L167.089 40.4967C166.943 40.404 166.843 40.2693 166.791 40.0926C166.763 39.9106 166.795 39.7463 166.888 39.5999C166.99 39.4387 167.124 39.3394 167.292 39.3017C167.474 39.2733 167.638 39.3055 167.785 39.3982L171.146 41.5255C171.424 41.7016 171.594 41.8707 171.656 42.0327C171.741 42.1893 171.719 42.3702 171.589 42.5753L169.087 46.5299C168.929 46.7789 168.718 46.9017 168.453 46.8984Z" fill="#636363"/>
<path d="M196.482 73.8187C196.36 73.6278 196.366 73.4399 196.501 73.2549C196.73 72.9442 196.977 72.5889 197.244 72.1892C197.51 71.7894 197.786 71.3674 198.072 70.9232L195.031 66.1731C194.53 66.2804 194.049 66.3824 193.588 66.4789C193.146 66.5794 192.739 66.6727 192.367 66.7588C192.256 66.7839 192.148 66.7755 192.042 66.7337C191.947 66.6845 191.871 66.6149 191.813 66.5251C191.749 66.424 191.726 66.3029 191.747 66.1616C191.785 66.0242 191.866 65.9151 191.988 65.8342C192.022 65.8122 192.07 65.7884 192.133 65.7629C192.214 65.7412 192.374 65.7072 192.614 65.6609C193.236 65.5211 193.953 65.3672 194.764 65.1992C195.581 65.0424 196.438 64.8841 197.333 64.7243C198.228 64.5644 199.132 64.4065 200.045 64.2506C200.958 64.0947 201.825 63.9532 202.646 63.8262C202.864 63.7946 203.033 63.8742 203.156 64.0651L203.199 64.1325C203.328 64.3346 203.336 64.5208 203.224 64.6911C202.773 65.4206 202.282 66.2 201.753 67.0293C201.23 67.8698 200.706 68.6955 200.18 69.5062C199.665 70.3096 199.177 71.0555 198.716 71.7439C198.265 72.425 197.888 72.9858 197.584 73.4261C197.442 73.6483 197.34 73.787 197.281 73.8423C197.229 73.9089 197.191 73.9495 197.169 73.9642C197.058 74.0377 196.929 74.0589 196.782 74.0279C196.654 74.0007 196.554 73.931 196.482 73.8187ZM198.68 70.0182C199.216 69.2001 199.759 68.3542 200.308 67.4804C200.857 66.6065 201.374 65.7697 201.859 64.9698C200.946 65.1257 199.988 65.2869 198.987 65.4532C198.003 65.6234 197.038 65.7976 196.092 65.9756L198.68 70.0182Z" fill="#636363"/>
<path d="M202.271 83.6047C202.222 83.4806 202.221 83.3514 202.269 83.2172C202.334 83.0904 202.428 83.002 202.552 82.9521L211.547 79.3215C211.683 79.2666 211.811 79.2651 211.932 79.317C212.057 79.3814 212.144 79.4756 212.193 79.5998C212.246 79.7363 212.247 79.8655 212.195 79.9873C212.142 80.1091 212.048 80.1974 211.912 80.2523L203.381 83.6959L205.178 88.2758C205.232 88.4123 205.232 88.5415 205.18 88.6633C205.127 88.7851 205.033 88.8734 204.897 88.9283C204.773 88.9782 204.645 88.9797 204.512 88.9328C204.391 88.8808 204.304 88.7866 204.251 88.6501L202.271 83.6047Z" fill="#636363"/>
<path d="M208.008 103.423C207.984 103.292 208.009 103.166 208.081 103.044C208.17 102.933 208.279 102.865 208.41 102.841L217.457 101.169L216.79 97.4892C216.767 97.358 216.791 97.2315 216.864 97.1096C216.952 96.9983 217.062 96.9306 217.193 96.9064C217.337 96.8798 217.463 96.9039 217.572 96.9788C217.683 97.0668 217.75 97.1764 217.774 97.3076L219.3 105.73C219.327 105.875 219.302 106.001 219.227 106.11C219.152 106.219 219.042 106.286 218.898 106.313C218.767 106.337 218.64 106.313 218.519 106.241C218.41 106.166 218.343 106.056 218.317 105.912L217.636 102.153L208.589 103.825C208.458 103.849 208.331 103.825 208.21 103.752C208.101 103.677 208.034 103.568 208.008 103.423Z" fill="#636363"/>
<path d="M209.843 121.81C209.71 121.808 209.591 121.759 209.486 121.664C209.394 121.569 209.349 121.448 209.351 121.301C209.353 121.168 209.401 121.049 209.496 120.944C209.604 120.852 209.725 120.808 209.858 120.81L219.557 120.99C219.703 120.993 219.823 121.042 219.915 121.137C220.006 121.245 220.051 121.366 220.049 121.499C220.047 121.646 219.998 121.765 219.904 121.857C219.809 121.948 219.688 121.993 219.542 121.99L209.843 121.81Z" fill="#636363"/>
<path d="M217.863 141.467C217.666 142.393 217.259 143.183 216.643 143.838C216.023 144.506 215.257 144.97 214.342 145.23C213.438 145.507 212.453 145.526 211.386 145.288C210.371 145.061 209.496 144.655 208.762 144.067C208.039 143.496 207.517 142.779 207.197 141.915C206.886 141.067 206.844 140.115 207.069 139.059C207.28 138.068 207.701 137.24 208.334 136.575C208.979 135.913 209.752 135.45 210.654 135.187C211.552 134.936 212.496 134.921 213.485 135.142C214.578 135.386 215.489 135.814 216.217 136.428C216.945 137.041 217.456 137.777 217.751 138.635C218.042 139.506 218.08 140.45 217.863 141.467ZM216.887 141.249C217.062 140.428 217.021 139.66 216.764 138.947C216.517 138.25 216.093 137.65 215.491 137.147C214.9 136.66 214.162 136.318 213.277 136.12C212.483 135.943 211.718 135.95 210.982 136.141C210.243 136.345 209.612 136.716 209.089 137.255C208.565 137.794 208.217 138.468 208.045 139.276C207.861 140.137 207.901 140.911 208.164 141.598C208.424 142.298 208.852 142.878 209.449 143.34C210.059 143.803 210.774 144.127 211.594 144.31C212.453 144.501 213.253 144.489 213.994 144.272C214.733 144.068 215.356 143.701 215.864 143.172C216.385 142.647 216.726 142.006 216.887 141.249Z" fill="#636363"/>
<path d="M199.353 159.205C199.411 159.07 199.516 158.978 199.667 158.929L204.423 157.481L205.479 155.018L202.301 153.6C202.179 153.546 202.088 153.454 202.028 153.325C201.979 153.201 201.984 153.072 202.042 152.937C202.094 152.815 202.184 152.723 202.312 152.663C202.446 152.621 202.574 152.627 202.696 152.681L211.554 156.634C211.688 156.694 211.779 156.786 211.827 156.909C211.87 157.045 211.866 157.175 211.813 157.297L210.654 159.999C210.344 160.722 209.945 161.281 209.456 161.676C208.962 162.084 208.423 162.325 207.84 162.4C207.263 162.493 206.676 162.407 206.08 162.141C205.422 161.847 204.904 161.397 204.526 160.791C204.143 160.196 204.011 159.473 204.13 158.621L199.952 159.888C199.847 159.929 199.734 159.922 199.612 159.868C199.503 159.819 199.418 159.73 199.357 159.601C199.297 159.472 199.295 159.34 199.353 159.205ZM210.703 157.349L206.392 155.426L205.431 157.668C205.068 158.514 204.999 159.249 205.224 159.875C205.46 160.507 205.877 160.955 206.474 161.222C207.119 161.51 207.742 161.495 208.342 161.179C208.949 160.88 209.415 160.351 209.741 159.592L210.703 157.349Z" fill="#636363"/>
<path d="M190.29 174.06C190.419 173.873 190.592 173.809 190.811 173.867C191.18 173.965 191.597 174.066 192.061 174.167C192.525 174.268 193.013 174.37 193.524 174.473L196.717 169.823C196.432 169.391 196.159 168.976 195.899 168.578C195.642 168.199 195.404 167.85 195.187 167.531C195.122 167.436 195.09 167.331 195.088 167.215C195.097 167.107 195.132 167.009 195.193 166.921C195.261 166.823 195.363 166.756 195.499 166.722C195.639 166.707 195.769 166.742 195.888 166.827C195.921 166.851 195.96 166.887 196.007 166.937C196.057 167.005 196.148 167.143 196.28 167.352C196.64 167.887 197.049 168.505 197.505 169.206C197.954 169.918 198.419 170.667 198.899 171.451C199.38 172.235 199.862 173.028 200.345 173.831C200.829 174.633 201.283 175.398 201.705 176.124C201.816 176.317 201.806 176.507 201.678 176.694L201.633 176.76C201.497 176.958 201.33 177.036 201.133 176.993C200.299 176.842 199.405 176.671 198.451 176.483C197.489 176.306 196.541 176.121 195.605 175.929C194.68 175.746 193.817 175.565 193.017 175.388C192.228 175.219 191.576 175.073 191.06 174.952C190.805 174.901 190.64 174.858 190.568 174.822C190.487 174.798 190.436 174.778 190.415 174.762C190.306 174.685 190.238 174.571 190.212 174.422C190.189 174.291 190.215 174.17 190.29 174.06ZM194.577 174.707C195.523 174.906 196.498 175.1 197.5 175.29C198.501 175.48 199.458 175.653 200.368 175.811C199.885 175.008 199.38 174.166 198.853 173.284C198.33 172.42 197.811 171.576 197.294 170.75L194.577 174.707Z" fill="#636363"/>
<path d="M170.006 193.593C170.118 193.521 170.243 193.495 170.382 193.517C170.517 193.557 170.62 193.633 170.691 193.746L175.826 201.976C175.903 202.1 175.928 202.227 175.899 202.357C175.858 202.494 175.782 202.598 175.67 202.671L173.265 204.219C172.604 204.645 171.942 204.881 171.279 204.927C170.624 204.984 170.02 204.873 169.469 204.594C168.906 204.322 168.441 203.892 168.074 203.304C167.736 202.761 167.545 202.178 167.502 201.556C167.448 200.94 167.579 200.332 167.896 199.732C168.202 199.139 168.725 198.604 169.464 198.128L171.449 196.85L169.85 194.288C169.779 194.175 169.755 194.048 169.777 193.907C169.806 193.777 169.882 193.672 170.006 193.593ZM174.72 202.093L171.978 197.698L169.994 198.976C169.198 199.488 168.723 200.088 168.569 200.773C168.412 201.477 168.527 202.14 168.915 202.763C169.325 203.419 169.883 203.797 170.589 203.897C171.303 204.008 172.019 203.833 172.736 203.371L174.72 202.093Z" fill="#636363"/>
<path d="M153.852 202.411C153.976 202.363 154.105 202.363 154.237 202.411C154.362 202.477 154.448 202.572 154.495 202.697L157.935 211.766C157.982 211.891 157.985 212.012 157.944 212.128C157.895 212.262 157.814 212.35 157.702 212.394L152.485 214.428C152.349 214.482 152.22 214.482 152.1 214.428C151.98 214.375 151.894 214.28 151.842 214.143C151.795 214.018 151.796 213.889 151.845 213.755C151.899 213.634 151.994 213.547 152.131 213.493L156.826 211.662L155.592 208.408L151.698 209.927C151.561 209.98 151.433 209.98 151.313 209.927C151.193 209.874 151.106 209.778 151.054 209.641C151.007 209.517 151.008 209.387 151.057 209.254C151.111 209.133 151.206 209.045 151.343 208.992L155.237 207.473L153.741 203.528L149.008 205.373C148.871 205.427 148.743 205.427 148.623 205.373C148.503 205.32 148.417 205.225 148.365 205.088C148.317 204.963 148.318 204.834 148.368 204.7C148.421 204.579 148.517 204.492 148.653 204.438L153.852 202.411Z" fill="#636363"/>
<path d="M134.766 207.876C134.898 207.854 135.024 207.879 135.144 207.953C135.254 208.042 135.32 208.153 135.342 208.284L136.879 217.355L140.565 216.719C140.696 216.696 140.822 216.722 140.943 216.796C141.053 216.885 141.119 216.996 141.141 217.127C141.166 217.272 141.14 217.398 141.063 217.506C140.974 217.616 140.864 217.682 140.732 217.705L132.297 219.16C132.152 219.185 132.026 219.16 131.919 219.084C131.811 219.007 131.745 218.897 131.72 218.752C131.698 218.621 131.724 218.495 131.798 218.374C131.875 218.266 131.985 218.199 132.13 218.174L135.894 217.525L134.357 208.454C134.335 208.323 134.361 208.197 134.435 208.076C134.511 207.968 134.622 207.901 134.766 207.876Z" fill="#636363"/>
<path d="M113.644 208.864C113.87 208.871 114.021 208.983 114.095 209.198C114.219 209.562 114.368 209.967 114.543 210.412C114.718 210.858 114.905 211.324 115.106 211.81L120.743 211.982C120.943 211.507 121.135 211.053 121.32 210.618C121.491 210.197 121.648 209.808 121.791 209.452C121.834 209.347 121.903 209.262 121.998 209.198C122.092 209.148 122.193 209.124 122.3 209.128C122.42 209.131 122.532 209.181 122.636 209.278C122.726 209.387 122.769 209.515 122.766 209.662C122.764 209.702 122.756 209.755 122.741 209.821C122.713 209.9 122.648 210.052 122.549 210.276C122.307 210.869 122.022 211.547 121.695 212.311C121.354 213.074 120.993 213.87 120.611 214.699C120.229 215.528 119.84 216.363 119.444 217.204C119.048 218.046 118.667 218.842 118.3 219.591C118.202 219.788 118.039 219.883 117.812 219.876L117.732 219.874C117.493 219.866 117.335 219.768 117.26 219.579C116.921 218.795 116.563 217.951 116.187 217.045C115.798 216.14 115.421 215.241 115.058 214.35C114.695 213.472 114.363 212.648 114.064 211.879C113.764 211.122 113.52 210.495 113.333 209.996C113.233 209.752 113.177 209.591 113.166 209.51C113.142 209.429 113.13 209.376 113.131 209.349C113.134 209.216 113.191 209.097 113.3 208.994C113.396 208.904 113.51 208.86 113.644 208.864ZM115.499 212.823C115.862 213.727 116.244 214.653 116.646 215.599C117.047 216.545 117.437 217.444 117.814 218.295C118.21 217.454 118.627 216.573 119.065 215.652C119.489 214.745 119.9 213.85 120.297 212.968L115.499 212.823Z" fill="#636363"/>
<path d="M94.6969 205.239C94.8137 205.267 94.9087 205.33 94.982 205.43C95.0553 205.529 95.0903 205.647 95.087 205.783C95.011 206.546 94.939 207.412 94.8711 208.383C94.8031 209.353 94.7408 210.359 94.6842 211.4C94.6275 212.441 94.5847 213.452 94.5557 214.431C95.1801 213.66 95.8262 212.854 96.4941 212.011C97.1461 211.179 97.7756 210.354 98.3828 209.538C98.99 208.723 99.5451 207.956 100.048 207.239C100.189 207.039 100.356 206.962 100.551 207.008C100.785 207.063 100.92 207.191 100.957 207.391C101.152 208.287 101.371 209.256 101.614 210.3C101.855 211.356 102.096 212.413 102.336 213.469C102.564 214.523 102.782 215.499 102.989 216.397C103.248 215.732 103.523 215.029 103.812 214.289C104.089 213.546 104.364 212.81 104.637 212.08C104.898 211.347 105.148 210.659 105.388 210.017C105.615 209.372 105.809 208.815 105.969 208.346C106.009 208.232 106.09 208.142 106.215 208.075C106.323 208.018 106.442 208.005 106.572 208.036C106.702 208.067 106.802 208.138 106.872 208.25C106.94 208.376 106.957 208.51 106.925 208.653C106.919 208.679 106.857 208.863 106.739 209.205C106.591 209.622 106.388 210.191 106.13 210.911C105.872 211.631 105.587 212.413 105.274 213.257C104.958 214.114 104.638 214.963 104.312 215.804C103.986 216.645 103.686 217.403 103.411 218.078C103.358 218.189 103.278 218.273 103.17 218.33C103.048 218.383 102.929 218.396 102.812 218.369C102.657 218.332 102.551 218.252 102.497 218.13C102.397 217.969 102.328 217.789 102.291 217.588C102.091 216.774 101.88 215.862 101.657 214.85C101.417 213.849 101.171 212.818 100.917 211.759C100.664 210.699 100.427 209.684 100.208 208.715C99.6385 209.485 99.0313 210.301 98.3864 211.162C97.7257 212.034 97.0599 212.898 96.3891 213.753C95.7024 214.619 95.0447 215.416 94.4162 216.145C94.2743 216.289 94.106 216.339 93.9113 216.293C93.7945 216.265 93.693 216.2 93.6067 216.098C93.5175 216.008 93.4796 215.904 93.493 215.783C93.5099 214.979 93.545 214.125 93.5984 213.219C93.6358 212.324 93.6789 211.465 93.7276 210.641C93.7764 209.816 93.8291 209.096 93.8859 208.479C93.9267 207.873 93.9526 207.454 93.9634 207.224C94.003 206.562 94.0367 206.138 94.0647 205.953C94.0798 205.765 94.0917 205.651 94.1004 205.612C94.1297 205.482 94.2015 205.376 94.3157 205.293C94.4271 205.224 94.5541 205.206 94.6969 205.239Z" fill="#636363"/>
<path d="M84.8526 205.976C85.3006 204.964 85.3614 204.053 85.035 203.242C84.6966 202.426 84.0732 201.808 83.1648 201.39C82.1595 200.927 81.2629 200.845 80.475 201.143C79.6696 201.447 79.0375 202.117 78.5787 203.154L76.2065 208.512C76.1471 208.646 76.0561 208.736 75.9336 208.783C75.7989 208.823 75.671 208.816 75.5499 208.76C75.4167 208.699 75.3265 208.606 75.2795 208.482C75.2325 208.357 75.2387 208.228 75.2981 208.094L77.6703 202.736C78.2587 201.407 79.0694 200.547 80.1024 200.157C81.1179 199.773 82.2737 199.879 83.5696 200.476C84.7444 201.017 85.5508 201.813 85.9886 202.866C86.4144 203.914 86.3385 205.089 85.7609 206.394L83.3644 211.807C83.3051 211.941 83.2141 212.032 83.0915 212.078C82.9568 212.119 82.829 212.111 82.7078 212.055C82.5746 211.994 82.4845 211.901 82.4375 211.777C82.3905 211.652 82.3967 211.523 82.4561 211.389L84.8526 205.976Z" fill="#636363"/>
<path d="M61.8438 198.336C62.0255 198.634 62.2495 198.929 62.5158 199.222C62.7713 199.508 63.1468 199.831 63.6423 200.193C64.1916 200.594 64.7276 200.77 65.2502 200.723C65.7652 200.686 66.1455 200.493 66.3911 200.144C66.6367 199.795 66.7085 199.369 66.6065 198.865C66.5044 198.362 66.0901 197.688 65.3635 196.844C64.7109 196.104 64.2704 195.444 64.0423 194.865C63.8033 194.278 63.7205 193.748 63.7938 193.273C63.8593 192.809 64.038 192.37 64.3296 191.956C64.6136 191.552 64.9884 191.24 65.454 191.019C65.9011 190.8 66.4353 190.736 67.0565 190.827C67.6593 190.92 68.3322 191.238 69.0754 191.78C70.1309 192.55 70.9291 193.512 71.47 194.666C71.5486 194.856 71.5342 195.027 71.4268 195.179C71.3577 195.277 71.2548 195.343 71.118 195.375C70.9812 195.407 70.8535 195.38 70.7351 195.293C70.6704 195.246 70.6173 195.183 70.5757 195.103C70.118 194.109 69.426 193.274 68.4998 192.598C67.7674 192.063 67.1052 191.811 66.5134 191.841C65.9031 191.875 65.4444 192.109 65.1374 192.545C64.8151 193.003 64.7295 193.518 64.8808 194.091C65.0214 194.656 65.428 195.34 66.1007 196.145C66.7273 196.899 67.1623 197.555 67.4059 198.112C67.6386 198.661 67.7245 199.153 67.6635 199.587C67.5917 200.014 67.4215 200.417 67.1528 200.799C66.9072 201.148 66.5762 201.41 66.1598 201.584C65.7249 201.762 65.2407 201.813 64.7071 201.737C64.1735 201.662 63.6267 201.419 63.0667 201.011C62.4743 200.578 62.0349 200.183 61.7486 199.826C61.4438 199.472 61.1497 199.067 60.8663 198.613C60.74 198.422 60.7421 198.233 60.8726 198.048C60.9493 197.939 61.0615 197.872 61.209 197.848C61.3382 197.827 61.4566 197.855 61.5643 197.934C61.5858 197.95 61.6143 197.979 61.6497 198.021C61.6774 198.074 61.7421 198.179 61.8438 198.336Z" fill="#636363"/>
</svg>
